<svg xmlns="http://www.w3.org/2000/svg"
 xmlns:xlink="http://www.w3.org/1999/xlink"
 width="42px" height="40px"  viewBox="0 0 42 40">
<path fill-rule="evenodd"  fill="#ff3b4a"
 d="M40.699707,14.06665 C39.650635,11.252869 38.101196,8.710266 36.091064,6.5080566 C34.092896,4.319458 31.700684,2.5464478 28.977905,1.2384033 C28.671753,1.0925293 28.30481,1.1442871 28.053345,1.3769531 C28.053345,1.3769531 10.564819,17.338562 10.564819,17.338562 C10.564819,17.338562 8.54541,19.182068 8.54541,19.182068 C8.436279,19.269043 8.342285,19.385376 8.284668,19.526611 C8.275635,19.547302 8.2664795,19.575134 8.257202,19.59967 C8.257202,19.59967 3.5546875,31.80957 3.5546875,31.80957 C3.5546875,31.80957 1.5476074,37.026184 1.5476074,37.026184 C1.432373,37.32129 1.4991455,37.652527 1.7114258,37.889038 C1.8718262,38.065125 2.0964355,38.15808 2.3267822,38.15808 C2.402588,38.15808 2.4814453,38.148926 2.557251,38.12494 C2.557251,38.12494 7.935913,36.60083 7.935913,36.60083 C7.935913,36.60083 20.58545,33.01367 20.58545,33.01367 C20.664185,32.992065 20.743164,32.95685 20.815918,32.910645 C20.855347,32.883118 20.894775,32.852966 20.93103,32.822754 C20.93103,32.822754 22.995972,30.937561 22.995972,30.937561 C22.995972,30.937561 40.481323,14.975037 40.481323,14.975037 C40.73291,14.745361 40.817993,14.384827 40.699707,14.06665 ZM4.779663,33.27295 C4.8129883,33.29486 4.852417,33.307922 4.8859863,33.32538 C5.2435303,33.55005 5.5771484,33.798035 5.8530273,34.104126 C6.1289062,34.406616 6.34729,34.75946 6.538208,35.13391 C6.5595703,35.167664 6.5684814,35.209656 6.583618,35.247253 C6.583618,35.247253 3.7062988,36.064514 3.7062988,36.064514 C3.7062988,36.064514 4.779663,33.27295 4.779663,33.27295 ZM19.9458,31.458496 C19.9458,31.458496 8.233154,34.779907 8.233154,34.779907 C8.199707,34.70764 8.142212,34.653503 8.105835,34.582764 C7.8358154,33.99579 7.5114746,33.44348 7.087036,32.976685 C6.659546,32.511047 6.1380615,32.141052 5.5771484,31.816956 C5.5074463,31.776428 5.4648438,31.713684 5.3951416,31.677246 C5.3951416,31.677246 9.767334,20.325806 9.767334,20.325806 C9.767334,20.325806 11.077026,19.13678 11.077026,19.13678 C11.077026,19.13678 12.135254,20.293213 12.135254,20.293213 C12.135254,20.293213 21.24939,30.26831 21.24939,30.26831 C21.24939,30.26831 19.9458,31.458496 19.9458,31.458496 ZM22.483398,29.141174 C22.483398,29.141174 19.836548,26.245117 19.836548,26.245117 C19.836548,26.245117 33.73828,13.5616455 33.73828,13.5616455 C33.917114,13.394714 34.007935,13.169495 34.007935,12.939758 C34.007935,12.742615 33.938354,12.539856 33.789673,12.38031 C33.48047,12.039917 32.94983,12.017761 32.610107,12.327332 C32.610107,12.327332 18.708618,25.011719 18.708618,25.011719 C18.708618,25.011719 18.165894,24.414368 18.165894,24.414368 C18.165894,24.414368 16.082886,22.130188 16.082886,22.130188 C16.082886,22.130188 29.978516,9.447327 29.978516,9.447327 C30.160278,9.279175 30.251465,9.055115 30.251465,8.824829 C30.251465,8.627686 30.178589,8.425537 30.033203,8.2647705 C29.720825,7.9262085 29.190186,7.9051514 28.850586,8.213013 C28.850586,8.213013 14.952026,20.899109 14.952026,20.899109 C14.952026,20.899109 12.311035,18.005432 12.311035,18.005432 C12.311035,18.005432 28.756714,2.9927979 28.756714,2.9927979 C31.076172,4.1800537 33.128784,5.7369995 34.856934,7.6378784 C36.59729,9.540222 37.96167,11.722046 38.932007,14.1276245 C38.932007,14.1276245 22.483398,29.141174 22.483398,29.141174 Z"/>
</svg>