<svg xmlns="http://www.w3.org/2000/svg"
 xmlns:xlink="http://www.w3.org/1999/xlink"
 width="43px" height="44px"  viewBox="0 0 43 44">
<path fill-rule="evenodd"  fill="#ff3b4a"
 d="M21.711182,27.657166 C18.651733,27.657166 16.161804,25.163086 16.161804,22.091797 C16.161804,19.022644 18.651733,16.528564 21.711182,16.528564 C24.767517,16.528564 27.255066,19.022644 27.255066,22.091797 C27.255066,25.163086 24.767517,27.657166 21.711182,27.657166 ZM21.711182,17.970642 C19.44281,17.970642 17.600037,19.820068 17.600037,22.091797 C17.600037,24.363586 19.44281,26.214783 21.711182,26.214783 C23.973999,26.214783 25.816833,24.363586 25.816833,22.091797 C25.816833,19.820068 23.973999,17.970642 21.711182,17.970642 ZM19.293945,42.18878 C18.965149,42.18878 18.6781,41.962646 18.597046,41.643555 C18.597046,41.643555 17.359863,36.68091 17.359863,36.68091 C16.396667,36.382507 15.446594,35.976746 14.527771,35.475586 C14.527771,35.475586 10.126953,38.125366 10.126953,38.125366 C9.845154,38.295288 9.482422,38.248474 9.249939,38.0188 C9.249939,38.0188 5.8306274,34.588196 5.8306274,34.588196 C5.5982666,34.355835 5.553894,33.993225 5.723572,33.70941 C5.723572,33.70941 8.365173,29.302002 8.365173,29.302002 C7.8745117,28.390015 7.4802856,27.44104 7.1880493,26.463684 C7.1880493,26.463684 2.2128296,25.216675 2.2128296,25.216675 C1.8944092,25.137024 1.6674194,24.846375 1.6674194,24.518677 C1.6674194,24.518677 1.6674194,19.674683 1.6674194,19.674683 C1.6674194,19.342285 1.8944092,19.053406 2.2128296,18.97528 C2.2128296,18.97528 7.1593018,17.736816 7.1593018,17.736816 C7.462036,16.76062 7.866577,15.807495 8.362549,14.892273 C8.362549,14.892273 5.7210083,10.477478 5.7210083,10.477478 C5.5513916,10.193054 5.595825,9.8289795 5.828003,9.595703 C5.828003,9.595703 9.242126,6.1727905 9.242126,6.1727905 C9.477112,5.9375 9.839844,5.888977 10.121826,6.0650635 C10.121826,6.0650635 14.522583,8.711304 14.522583,8.711304 C15.428345,8.22467 16.375793,7.8256836 17.349365,7.5338135 C17.349365,7.5338135 18.591797,2.5438843 18.591797,2.5438843 C18.67273,2.2230225 18.9599,1.9971924 19.28888,1.9971924 C19.28888,1.9971924 24.1203,1.9971924 24.1203,1.9971924 C24.449097,1.9971924 24.73877,2.2230225 24.8172,2.5438843 C24.8172,2.5438843 26.054443,7.510437 26.054443,7.510437 C27.025452,7.8135376 27.975525,8.217834 28.88385,8.707764 C28.88385,8.707764 33.289856,6.0565186 33.289856,6.0565186 C33.566467,5.8945923 33.932007,5.9375 34.166992,6.1674805 C34.166992,6.1674805 37.581055,9.590698 37.581055,9.590698 C37.81598,9.823914 37.86035,10.186829 37.690674,10.4730835 C37.690674,10.4730835 35.049072,14.892273 35.049072,14.892273 C35.534668,15.798035 35.928772,16.74762 36.22113,17.718445 C36.22113,17.718445 41.201416,18.970215 41.201416,18.970215 C41.5224,19.0484 41.74701,19.33905 41.74701,19.669373 C41.74701,19.669373 41.74701,24.509521 41.74701,24.509521 C41.74701,24.83899 41.5224,25.130249 41.201416,25.207458 C41.201416,25.207458 36.22113,26.45868 36.22113,26.45868 C35.928772,27.439026 35.534668,28.38794 35.051697,29.28778 C35.051697,29.28778 37.695923,33.703735 37.695923,33.703735 C37.86548,33.989685 37.821228,34.352905 37.586304,34.585815 C37.586304,34.585815 34.17206,38.01642 34.17206,38.01642 C33.937256,38.248474 33.57434,38.288147 33.294983,38.125366 C33.294983,38.125366 28.8891,35.473206 28.8891,35.473206 C27.980713,35.970215 27.030579,36.37097 26.057068,36.677673 C26.057068,36.677673 24.824951,41.640625 24.824951,41.640625 C24.744019,41.960266 24.45697,42.185547 24.125427,42.185547 C24.125427,42.185547 19.293945,42.18878 19.293945,42.18878 C19.293945,42.18878 19.293945,42.18878 19.293945,42.18878 ZM14.514893,33.921936 C14.637451,33.921936 14.762634,33.95331 14.874817,34.018433 C15.929504,34.628174 17.03363,35.09613 18.153381,35.408386 C18.401367,35.478577 18.591797,35.680725 18.657043,35.931458 C18.657043,35.931458 19.85785,40.7464 19.85785,40.7464 C19.85785,40.7464 23.56427,40.74347 23.56427,40.74347 C23.56427,40.74347 24.762451,35.92639 24.762451,35.92639 C24.824951,35.67804 25.015503,35.478577 25.263489,35.408386 C26.399048,35.088745 27.500488,34.62018 28.541992,34.016663 C28.768982,33.882812 29.045715,33.887268 29.270264,34.019897 C29.270264,34.019897 33.550964,36.600098 33.550964,36.600098 C33.550964,36.600098 36.174133,33.964844 36.174133,33.964844 C36.174133,33.964844 33.60321,29.675842 33.60321,29.675842 C33.467285,29.449707 33.467285,29.169373 33.595337,28.941772 C34.187805,27.914062 34.641968,26.816528 34.950012,25.672485 C35.017883,25.421204 35.21631,25.22583 35.46936,25.163086 C35.46936,25.163086 40.308655,23.945618 40.308655,23.945618 C40.308655,23.945618 40.308655,20.232056 40.308655,20.232056 C40.308655,20.232056 35.46936,19.016418 35.46936,19.016418 C35.21631,18.954834 35.017883,18.758606 34.950012,18.505798 C34.64453,17.372742 34.187805,16.269836 33.595337,15.233582 C33.467285,15.009827 33.47003,14.730408 33.60321,14.503662 C33.60321,14.503662 36.168884,10.213745 36.168884,10.213745 C36.168884,10.213745 33.548218,7.5861816 33.548218,7.5861816 C33.548218,7.5861816 29.26764,10.161682 29.26764,10.161682 C29.045715,10.296936 28.768982,10.303162 28.539429,10.167603 C27.49524,9.564331 26.393677,9.09668 25.261047,8.776123 C25.013,8.707764 24.822449,8.51001 24.759644,8.258728 C24.759644,8.258728 23.559143,3.43927 23.559143,3.43927 C23.559143,3.43927 19.852661,3.43927 19.852661,3.43927 C19.852661,3.43927 18.643982,8.287109 18.643982,8.287109 C18.581543,8.539001 18.385681,8.740295 18.135132,8.807495 C16.999695,9.117126 15.900757,9.574707 14.8671875,10.169067 C14.6427,10.303162 14.365906,10.300171 14.138916,10.161682 C14.138916,10.161682 9.863342,7.5879517 9.863342,7.5879517 C9.863342,7.5879517 7.242737,10.21936 7.242737,10.21936 C7.242737,10.21936 9.808594,14.503662 9.808594,14.503662 C9.944275,14.730408 9.944275,15.009827 9.813904,15.235962 C9.210815,16.289124 8.741028,17.396729 8.42511,18.529175 C8.354614,18.781067 8.156311,18.971985 7.9057007,19.035034 C7.9057007,19.035034 3.1056519,20.23767 3.1056519,20.23767 C3.1056519,20.23767 3.1056519,23.953064 3.1056519,23.953064 C3.1056519,23.953064 7.939636,25.16809 7.939636,25.16809 C8.192871,25.230835 8.391174,25.427124 8.459045,25.679016 C8.766968,26.814758 9.2213745,27.916443 9.819092,28.953918 C9.949463,29.181213 9.946899,29.461548 9.811096,29.685608 C9.811096,29.685608 7.2453613,33.96985 7.2453613,33.96985 C7.2453613,33.96985 9.86853,36.602478 9.86853,36.602478 C9.86853,36.602478 14.144043,34.02643 14.144043,34.02643 C14.259033,33.95685 14.38678,33.921936 14.514893,33.921936 Z"/>
</svg>