<svg xmlns="http://www.w3.org/2000/svg"
 xmlns:xlink="http://www.w3.org/1999/xlink"
 width="46px" height="36px"  viewBox="0 0 46 36">
<path fill-rule="evenodd"  fill="#ff3b4a"
 d="M44.954712,18.445557 C44.954712,18.445557 44.954712,8.043579 44.954712,8.043579 C44.954712,7.6132812 44.599365,7.262207 44.164185,7.262207 C44.164185,7.262207 29.12439,7.262207 29.12439,7.262207 C29.12439,7.262207 29.12439,2.7745361 29.12439,2.7745361 C29.12439,2.3442383 28.772095,1.9960938 28.336792,1.9960938 C28.336792,1.9960938 1.7969971,1.9960938 1.7969971,1.9960938 C1.3615723,1.9960938 1.0063477,2.3442383 1.0063477,2.7745361 C1.0063477,2.7745361 1.0063477,28.966675 1.0063477,28.966675 C1.0063477,29.39917 1.3615723,29.746948 1.7969971,29.746948 C1.7969971,29.746948 4.463623,29.746948 4.463623,29.746948 C4.898926,29.746948 5.2541504,29.39917 5.2541504,28.966675 C5.2541504,28.535156 4.898926,28.185913 4.463623,28.185913 C4.463623,28.185913 2.5845947,28.185913 2.5845947,28.185913 C2.5845947,28.185913 2.5845947,3.5524902 2.5845947,3.5524902 C2.5845947,3.5524902 27.546143,3.5524902 27.546143,3.5524902 C27.546143,3.5524902 27.546143,8.043579 27.546143,8.043579 C27.546143,8.043579 27.546143,23.141235 27.546143,23.141235 C27.546143,23.570435 27.901245,23.921997 28.336792,23.921997 C28.772095,23.921997 29.12439,23.570435 29.12439,23.141235 C29.12439,23.141235 29.12439,8.8220215 29.12439,8.8220215 C29.12439,8.8220215 35.46277,8.8220215 35.46277,8.8220215 C35.46277,8.8220215 35.46277,18.537231 35.46277,18.537231 C35.46277,18.967041 35.815063,19.31604 36.250366,19.31604 C36.250366,19.31604 43.376465,19.31604 43.376465,19.31604 C43.376465,19.31604 43.376465,28.185913 43.376465,28.185913 C43.376465,28.185913 41.526245,28.185913 41.526245,28.185913 C41.090942,28.185913 40.738647,28.535156 40.738647,28.966675 C40.738647,29.39917 41.090942,29.746948 41.526245,29.746948 C41.526245,29.746948 44.164185,29.746948 44.164185,29.746948 C44.599365,29.746948 44.954712,29.39917 44.954712,28.966675 C44.954712,28.966675 44.954712,18.625732 44.954712,18.625732 C44.957397,18.59021 44.991943,18.571655 44.991943,18.537231 C44.991943,18.500854 44.957397,18.48169 44.954712,18.445557 ZM43.376465,17.75586 C43.376465,17.75586 37.037964,17.75586 37.037964,17.75586 C37.037964,17.75586 37.037964,8.8220215 37.037964,8.8220215 C37.037964,8.8220215 43.376465,8.8220215 43.376465,8.8220215 C43.376465,8.8220215 43.376465,17.75586 43.376465,17.75586 ZM33.600952,22.952026 C30.241333,22.952026 27.508911,25.650635 27.508911,28.969116 C27.508911,32.289307 30.241333,34.98877 33.600952,34.98877 C36.954956,34.98877 39.68445,32.289307 39.68445,28.969116 C39.68445,25.650635 36.954956,22.952026 33.600952,22.952026 ZM33.600952,33.4292 C31.11206,33.4292 29.087036,31.429443 29.087036,28.969116 C29.087036,26.510254 31.11206,24.511353 33.600952,24.511353 C36.08423,24.511353 38.106323,26.510254 38.106323,28.969116 C38.106323,31.429443 36.08423,33.4292 33.600952,33.4292 ZM12.397339,22.948242 C9.037598,22.948242 6.3079834,25.648071 6.3079834,28.966675 C6.3079834,32.28784 9.037598,34.98584 12.397339,34.98584 C15.754028,34.98584 18.486694,32.28784 18.486694,28.966675 C18.486694,25.648071 15.754028,22.948242 12.397339,22.948242 ZM12.397339,33.426514 C9.908325,33.426514 7.883423,31.426514 7.883423,28.966675 C7.883423,26.507935 9.908325,24.510498 12.397339,24.510498 C14.883423,24.510498 16.90857,26.507935 16.90857,28.966675 C16.90857,31.426514 14.883423,33.426514 12.397339,33.426514 ZM25.667236,28.185913 C25.667236,28.185913 20.328247,28.185913 20.328247,28.185913 C19.892944,28.185913 19.540771,28.535156 19.540771,28.966675 C19.540771,29.39917 19.892944,29.746948 20.328247,29.746948 C20.328247,29.746948 25.667236,29.746948 25.667236,29.746948 C26.10254,29.746948 26.454712,29.39917 26.454712,28.966675 C26.454712,28.535156 26.10254,28.185913 25.667236,28.185913 Z"/>
</svg>