<svg xmlns="http://www.w3.org/2000/svg"
 xmlns:xlink="http://www.w3.org/1999/xlink"
 width="80px" height="121px"  viewBox="0 0 80 121">
<path fill-rule="evenodd"  fill="#303030"
 d="M7.6492004,1.2693481 C7.6492004,1.2693481 72.29492,1.2693481 72.29492,1.2693481 C75.61603,1.2693481 78.30844,3.961731 78.30844,7.282898 C78.30844,7.282898 78.30844,113.27167 78.30844,113.27167 C78.30844,116.59296 75.61603,119.28522 72.29492,119.28522 C72.29492,119.28522 7.6492004,119.28522 7.6492004,119.28522 C4.328003,119.28522 1.6357117,116.59296 1.6357117,113.27167 C1.6357117,113.27167 1.6357117,7.282898 1.6357117,7.282898 C1.6357117,3.961731 4.328003,1.2693481 7.6492004,1.2693481 ZM6.1458435,13.797546 C6.1458435,13.797546 73.79831,13.797546 73.79831,13.797546 C73.79831,13.797546 73.79831,107.75934 73.79831,107.75934 C73.79831,107.75934 6.1458435,107.75934 6.1458435,107.75934 C6.1458435,107.75934 6.1458435,13.797546 6.1458435,13.797546 ZM40.723816,7.0323486 C41.277313,7.0323486 41.726044,7.481079 41.726044,8.034546 C41.726044,8.588135 41.277313,9.036865 40.723816,9.036865 C40.170197,9.036865 39.721558,8.588135 39.721558,8.034546 C39.721558,7.481079 40.170197,7.0323486 40.723816,7.0323486 ZM40.09732,110.599 C41.780945,110.599 43.145844,111.96387 43.145844,113.64752 C43.145844,115.33124 41.780945,116.696045 40.09732,116.696045 C38.413696,116.696045 37.04883,115.33124 37.04883,113.64752 C37.04883,111.96387 38.413696,110.599 40.09732,110.599 Z"/>
</svg>