<svg xmlns="http://www.w3.org/2000/svg"
 xmlns:xlink="http://www.w3.org/1999/xlink"
 width="132px" height="130px"  viewBox="0 0 132 130">
<path fill-rule="evenodd"  fill="#303030"
 d="M8.296417,1.8744507 C8.296417,1.8744507 124.13077,1.8744507 124.13077,1.8744507 C127.765594,1.8744507 130.71219,4.821045 130.71219,8.455994 C130.71219,8.455994 130.71219,102.90045 130.71219,102.90045 C130.71219,106.53528 127.765594,109.48187 124.13077,109.48187 C124.13077,109.48187 8.296417,109.48187 8.296417,109.48187 C4.6615906,109.48187 1.7149048,106.53528 1.7149048,102.90045 C1.7149048,102.90045 1.7149048,8.455994 1.7149048,8.455994 C1.7149048,4.821045 4.6615906,1.8744507 8.296417,1.8744507 ZM14.548828,8.784973 C14.548828,8.784973 117.87836,8.784973 117.87836,8.784973 C121.51318,8.784973 124.45978,11.731689 124.45978,15.366516 C124.45978,15.366516 124.45978,79.53607 124.45978,79.53607 C124.45978,83.17102 121.51318,86.117615 117.87836,86.117615 C117.87836,86.117615 14.548828,86.117615 14.548828,86.117615 C10.91391,86.117615 7.9673157,83.17102 7.9673157,79.53607 C7.9673157,79.53607 7.9673157,15.366516 7.9673157,15.366516 C7.9673157,11.731689 10.91391,8.784973 14.548828,8.784973 ZM49.45752,109.3349 C49.45752,109.3349 51.62903,121.8631 43.276917,126.20624 C43.276917,126.20624 43.276917,128.54486 43.276917,128.54486 C43.276917,128.54486 89.04666,128.54486 89.04666,128.54486 C89.04666,128.54486 89.04666,126.20624 89.04666,126.20624 C89.04666,126.20624 83.200165,120.8609 83.03314,109.3349 C82.86603,97.8089 51.79605,102.15204 49.45752,109.3349 ZM65.32654,96.05493 C65.32654,96.05493 63.071533,94.46814 62.069183,96.8902 C62.069183,96.8902 61.126648,99.407776 63.489136,101.91345 C63.489136,101.91345 64.739685,102.55768 65.598785,102.128235 C65.598785,102.128235 67.21179,102.7121 67.85605,102.06781 C68.5004,101.42352 68.61673,100.54651 69.046234,100.04541 C69.046234,100.04541 67.153564,98.88434 68.84488,96.503845 C68.84488,96.503845 68.54733,95.7522 67.60776,95.61127 C66.66818,95.47034 65.32654,96.05493 65.32654,96.05493 ZM65.46225,95.11011 C65.46225,95.11011 66.981384,95.31378 67.62341,93.88861 C67.62341,93.88861 66.10437,93.15259 65.46225,95.11011 Z"/>
</svg>