<svg xmlns="http://www.w3.org/2000/svg"
 xmlns:xlink="http://www.w3.org/1999/xlink"
 width="57px" height="57px"  viewBox="0 0 57 57">
<path fill-rule="evenodd"  fill="#ffffff"
 d="M28.503906,1.0114746 C13.327454,1.0114746 1.0116577,13.3272705 1.0116577,28.502686 C1.0116577,43.67215 13.327454,55.987946 28.503906,55.987946 C43.672485,55.987946 55.98828,43.67215 55.98828,28.502686 C55.98828,13.3272705 43.672485,1.0114746 28.503906,1.0114746 C28.503906,1.0114746 28.503906,1.0114746 28.503906,1.0114746 ZM28.503906,3.8089294 C38.263,3.8089294 46.69702,9.5000305 50.70349,17.723328 C50.70349,17.723328 50.70349,17.77713 50.70349,17.77713 C50.726807,18.066528 50.757935,18.361572 50.750183,18.675476 C50.95288,18.83908 51.202393,19.118683 51.451782,19.423859 C52.01294,20.842255 52.40265,22.331177 52.698975,23.85794 C52.465088,24.077148 52.1532,24.232056 51.646545,24.26236 C49.097717,22.253052 51.592102,26.469238 52.995056,25.705383 C53.096436,26.617249 53.197876,27.561493 53.197876,28.502686 C53.197876,34.61493 50.937317,40.15686 47.258118,44.466614 C47.258118,44.311523 47.29706,44.117615 47.359497,43.81259 C49.0744,41.731476 48.7547,37.62448 45.262695,38.075592 C43.44641,39.502045 40.92871,41.33383 38.7229,39.228394 C36.42334,37.155823 37.491333,33.72705 38.777344,31.396606 C40.063477,29.52472 40.484497,26.756714 42.76831,25.806671 C45.021057,26.322052 47.780396,26.16629 48.60663,23.414734 C49.308105,22.181091 48.910583,21.767975 48.25586,21.465027 C48.18567,21.441528 48.14673,21.441528 48.107788,21.419128 C47.359497,21.105255 46.408447,20.855957 46.307068,19.772552 C46.9776,18.619751 45.558777,16.259033 45.013245,18.370422 C46.17462,19.68686 46.439575,23.639893 43.664673,22.167542 C44.654663,23.749725 40.087036,22.735413 40.967834,24.95697 C41.692566,27.373535 36.84436,28.738464 38.22412,25.659637 C39.00354,23.390411 37.86548,19.983856 39.876526,18.52536 C39.85321,18.456268 40.055664,18.152191 39.970093,18.47174 C40.0401,18.425995 40.09485,18.361572 40.172607,18.32373 C41.92639,17.11438 37.94336,13.483002 38.177185,15.728058 C39.89209,16.624298 38.94879,18.433899 37.28076,17.528778 C35.52704,16.663452 34.887817,11.854919 37.327515,12.190247 C39.167114,12.431824 37.41333,10.490021 36.579224,9.545929 C36.49359,9.983185 36.361084,9.460083 36.43109,9.39856 C36.392212,9.351868 36.31421,9.282776 36.27533,9.242676 C36.509155,6.35083 31.691895,8.883026 30.8891,6.3041077 C27.856812,4.800537 24.388306,4.7151794 21.013184,4.956604 C22.307007,4.5434875 23.632202,4.301605 25.00409,4.106079 C25.136597,4.0906067 25.269043,4.074829 25.401611,4.059387 C25.775757,4.0200806 26.157654,3.9725647 26.500671,3.9108887 C27.155457,3.8564453 27.825684,3.8089294 28.496155,3.8089294 C28.496155,3.8089294 28.503906,3.8089294 28.503906,3.8089294 ZM18.175781,7.0992126 C21.620972,8.244934 16.42981,11.892944 19.025513,13.334991 C19.290527,13.3272705 19.500793,13.397308 19.719116,13.483002 C19.789307,13.413086 19.812683,13.451111 19.820435,13.536621 C20.981812,14.0755005 21.231323,15.735779 19.321655,15.6267395 C16.6792,14.878357 15.6345825,20.520782 18.222473,19.82022 C19.173584,17.162231 22.042053,18.284576 22.564209,20.615173 C24.107544,23.01532 20.950684,22.993591 19.867188,24.012878 C20.958496,25.979004 17.949707,24.941498 16.82727,25.908936 C14.675964,26.383575 14.013306,29.650482 12.134766,29.749878 C12.056946,26.329926 6.3588867,27.483398 7.2943726,30.592651 C8.510193,31.543488 10.131531,32.525757 9.889893,34.536804 C9.796448,38.77713 15.011047,37.382904 17.326172,39.627655 C20.171265,40.875 21.995117,43.439423 24.505249,45.11548 C26.679932,44.37497 30.701965,46.44046 28.55066,49.05063 C27.264526,50.001648 25.767944,50.835876 24.208862,51.397003 C24.208862,51.397003 24.208862,51.450623 24.208862,51.450623 C23.265808,51.785767 22.252563,52.021545 21.262573,52.099487 C19.34497,51.50714 17.521118,50.673065 15.829529,49.65088 C15.821777,49.635254 15.83728,49.618805 15.829529,49.605133 C15.057861,47.36023 12.992249,45.9718 11.589172,44.16336 C10.848694,43.42285 10.747314,42.58908 10.786438,41.72278 C10.802002,41.716644 10.77063,41.676727 10.786438,41.668976 C10.879822,40.234802 11.386475,38.738495 10.342041,37.42865 C8.712891,34.70816 6.662964,32.214752 5.602783,29.197296 C5.485901,26.080475 5.314453,23.08731 6.351074,20.116241 C8.658447,15.377136 14.411011,10.318329 18.175781,7.0992126 C18.175781,7.0992126 18.175781,7.0992126 18.175781,7.0992126 ZM25.510742,10.942871 C25.604126,10.935303 25.689941,10.965271 25.806885,10.988617 C26.407166,10.988617 26.204346,11.659088 25.806885,11.838501 C24.388306,13.171356 24.037537,11.222626 25.206665,10.988617 C25.29242,10.973175 25.409363,10.942871 25.510742,10.942871 C25.510742,10.942871 25.510742,10.942871 25.510742,10.942871 ZM27.451538,11.386261 C28.472656,11.262573 29.501709,11.674866 29.79779,12.882751 C30.514954,15.743683 27.662048,17.592072 26.601868,19.922821 C23.975037,19.187927 26.750183,16.28949 25.604126,14.878357 C24.029785,13.2491455 25.744629,11.605438 27.451538,11.386261 C27.451538,11.386261 27.451538,11.386261 27.451538,11.386261 ZM22.31482,14.231415 C23.975037,14.129944 23.655518,17.801422 22.268127,18.370422 C21.052063,17.256744 22.650024,15.617889 21.96399,14.332703 C22.096558,14.293884 22.205627,14.239288 22.31482,14.231415 C22.31482,14.231415 22.31482,14.231415 22.31482,14.231415 ZM36.63391,20.116241 C37.179382,20.086273 38.395447,20.646729 38.278564,21.419128 C37.756348,22.29898 36.28308,22.221008 36.828613,20.92035 C36.23639,20.365875 36.306458,20.139893 36.63391,20.116241 C36.63391,20.116241 36.63391,20.116241 36.63391,20.116241 ZM22.268127,23.913513 C22.91504,23.795471 24.310303,24.286835 23.016418,25.058441 C23.429443,24.621643 22.71228,24.78543 22.6109,24.80896 C21.777039,24.232056 21.870422,23.983582 22.268127,23.913513 C22.268127,23.913513 22.268127,23.913513 22.268127,23.913513 ZM17.03003,25.954681 C17.209229,25.979004 16.96759,26.219757 16.725891,26.15857 C16.725891,26.15857 16.6792,26.15857 16.6792,26.15857 C16.64032,26.141998 16.609009,26.088196 16.57782,26.056152 C16.811768,25.962402 16.952026,25.94696 17.03003,25.954681 C17.03003,25.954681 17.03003,25.954681 17.03003,25.954681 ZM11.940002,32.893097 C12.049194,32.861053 12.173828,32.87668 12.337463,32.893097 C12.469971,32.906647 12.649353,32.946594 12.789673,32.992645 C12.789673,33.016785 12.78186,33.001343 12.789673,33.04016 C13.327454,33.22809 13.826294,33.64926 13.584656,34.334198 C13.171631,34.497833 12.734985,34.20166 12.485596,33.89084 C11.589172,33.336487 11.604736,32.986694 11.940002,32.893097 C11.940002,32.893097 11.940002,32.893097 11.940002,32.893097 Z"/>
</svg>