<svg xmlns="http://www.w3.org/2000/svg"
 xmlns:xlink="http://www.w3.org/1999/xlink"
 width="32px" height="58px"  viewBox="0 0 32 58">
<path fill-rule="evenodd"  fill="#ffffff"
 d="M5.6730957,1.3160706 C5.6730957,1.3160706 25.934937,1.3160706 25.934937,1.3160706 C28.421753,1.3160706 30.437744,3.3318024 30.437744,5.8186035 C30.437744,5.8186035 30.437744,52.15851 30.437744,52.15851 C30.437744,54.64514 28.421753,56.661194 25.934937,56.661194 C25.934937,56.661194 5.6730957,56.661194 5.6730957,56.661194 C3.1862793,56.661194 1.1704102,54.64514 1.1704102,52.15851 C1.1704102,52.15851 1.1704102,5.8186035 1.1704102,5.8186035 C1.1704102,3.3318024 3.1862793,1.3160706 5.6730957,1.3160706 ZM3.609375,9.007904 C3.609375,9.007904 28.373901,9.007904 28.373901,9.007904 C28.373901,9.007904 28.373901,47.843445 28.373901,47.843445 C28.373901,47.843445 3.609375,47.843445 3.609375,47.843445 C3.609375,47.843445 3.609375,9.007904 3.609375,9.007904 ZM12.489502,4.880478 C12.489502,4.880478 19.24353,4.880478 19.24353,4.880478 C19.623535,4.880478 19.931519,5.188568 19.931519,5.568329 C19.931519,5.94841 19.623535,6.2563324 19.24353,6.2563324 C19.24353,6.2563324 12.489502,6.2563324 12.489502,6.2563324 C12.109619,6.2563324 11.801636,5.94841 11.801636,5.568329 C11.801636,5.188568 12.109619,4.880478 12.489502,4.880478 ZM15.991699,50.032303 C17.13147,50.032303 18.055298,50.956253 18.055298,52.09601 C18.055298,53.23561 17.13147,54.15973 15.991699,54.15973 C14.851807,54.15973 13.9279785,53.23561 13.9279785,52.09601 C13.9279785,50.956253 14.851807,50.032303 15.991699,50.032303 Z"/>
</svg>