<svg xmlns="http://www.w3.org/2000/svg"
 xmlns:xlink="http://www.w3.org/1999/xlink"
 width="69px" height="67px"  viewBox="0 0 69 67">
<path fill-rule="evenodd"  fill="#ffffff"
 d="M5.083618,1.8847198 C5.083618,1.8847198 63.71399,1.8847198 63.71399,1.8847198 C65.55383,1.8847198 67.04529,3.3762207 67.04529,5.215912 C67.04529,5.215912 67.04529,53.019623 67.04529,53.019623 C67.04529,54.85948 65.55383,56.350815 63.71399,56.350815 C63.71399,56.350815 5.083618,56.350815 5.083618,56.350815 C3.2438354,56.350815 1.7523193,54.85948 1.7523193,53.019623 C1.7523193,53.019623 1.7523193,5.215912 1.7523193,5.215912 C1.7523193,3.3762207 3.2438354,1.8847198 5.083618,1.8847198 ZM8.248291,5.3824463 C8.248291,5.3824463 60.549316,5.3824463 60.549316,5.3824463 C62.3891,5.3824463 63.880554,6.873947 63.880554,8.713806 C63.880554,8.713806 63.880554,41.19359 63.880554,41.19359 C63.880554,43.033447 62.3891,44.52478 60.549316,44.52478 C60.549316,44.52478 8.248291,44.52478 8.248291,44.52478 C6.4085083,44.52478 4.9171143,43.033447 4.9171143,41.19359 C4.9171143,41.19359 4.9171143,8.713806 4.9171143,8.713806 C4.9171143,6.873947 6.4085083,5.3824463 8.248291,5.3824463 ZM25.917603,56.276413 C25.917603,56.276413 27.016785,62.61783 22.789246,64.81601 C22.789246,64.81601 22.789246,65.99991 22.789246,65.99991 C22.789246,65.99991 45.955994,65.99991 45.955994,65.99991 C45.955994,65.99991 45.955994,64.81601 45.955994,64.81601 C45.955994,64.81601 42.996704,62.110504 42.91217,56.276413 C42.827637,50.442474 27.101318,52.640823 25.917603,56.276413 ZM33.94983,49.55475 C33.94983,49.55475 32.80841,48.751587 32.301147,49.97751 C32.301147,49.97751 31.824097,51.251755 33.019836,52.520035 C33.019836,52.520035 33.652832,52.84633 34.087646,52.628754 C34.087646,52.628754 34.904053,52.92427 35.230225,52.598312 C35.556274,52.272186 35.615173,51.828156 35.83264,51.57451 C35.83264,51.57451 34.874634,50.986664 35.730713,49.781998 C35.730713,49.781998 35.58008,49.401596 35.104492,49.330246 C34.628906,49.258896 33.94983,49.55475 33.94983,49.55475 ZM34.018555,49.07643 C34.018555,49.07643 34.787476,49.179504 35.112427,48.458313 C35.112427,48.458313 34.343506,48.0858 34.018555,49.07643 Z"/>
</svg>