<svg xmlns="http://www.w3.org/2000/svg" xmlns:xlink="http://www.w3.org/1999/xlink" width="51" height="47" viewBox="0 0 51 47">
    <path fill-rule="evenodd" d="M48.043335,44.748535 C48.043335,45.439453 47.490845,45.99951 46.809326,45.99951 C46.809326,45.99951 3.2338867,45.99951 3.2338867,45.99951 C2.5524902,45.99951 2.0,45.439453 2.0,44.748535 C2.0,44.058105 2.5524902,43.498047 3.2338867,43.498047 C3.2338867,43.498047 46.809326,43.498047 46.809326,43.498047 C47.490845,43.498047 48.043335,44.058105 48.043335,44.748535 ZM23.769165,24.21289 C24.006958,24.437988 24.309082,24.549316 24.6109,24.549316 C24.940918,24.549316 25.270264,24.416016 25.513367,24.151855 C25.97821,23.646484 25.951294,22.855469 25.453064,22.38379 C23.337524,20.382324 23.7901,16.313965 25.608215,14.01416 C28.075134,10.893555 28.618164,5.3305664 25.452942,2.336914 C24.954773,1.8657227 24.173706,1.8930664 23.70874,2.3984375 C23.243896,2.9033203 23.270996,3.6953125 23.76941,4.166504 C25.6698,5.963867 25.627441,9.98877 23.682434,12.449707 C22.403992,14.066895 21.639893,16.234375 21.585876,18.396484 C21.52649,20.759277 22.302002,22.824707 23.769165,24.21289 ZM49.99994,21.614258 C49.99994,21.614258 49.99994,24.01416 49.99994,24.01416 C49.99994,27.45459 47.23938,30.25293 43.845886,30.25293 C43.845886,30.25293 41.09131,30.25293 41.09131,30.25293 C39.221313,35.523926 34.240173,39.30371 28.40503,39.30371 C28.40503,39.30371 21.63861,39.30371 21.63861,39.30371 C14.207886,39.30371 8.162537,33.175293 8.162537,25.642578 C8.162537,25.642578 8.162537,13.231934 8.162537,13.231934 C8.162537,12.541016 8.715027,11.980957 9.396545,11.980957 C9.396545,11.980957 17.311829,11.980957 17.311829,11.980957 C18.918457,9.504883 18.846619,5.8535156 17.062805,4.166504 C16.564636,3.6948242 16.537659,2.9033203 17.002502,2.3984375 C17.467468,1.8930664 18.248413,1.8657227 18.746582,2.3374023 C21.91101,5.3305664 21.368164,10.893555 18.901978,14.01416 C17.08319,16.314453 16.630432,20.382324 18.746582,22.38379 C19.244873,22.855469 19.271973,23.646484 18.807129,24.151855 C18.342163,24.657227 17.561218,24.68457 17.062927,24.213379 C15.595459,22.824707 14.819885,20.759277 14.878906,18.396484 C14.91272,17.049316 15.222168,15.700195 15.76001,14.48291 C15.76001,14.48291 10.630432,14.48291 10.630432,14.48291 C10.630432,14.48291 10.630432,25.642578 10.630432,25.642578 C10.630432,31.795898 15.568787,36.801758 21.63861,36.801758 C21.63861,36.801758 28.40503,36.801758 28.40503,36.801758 C34.474854,36.801758 39.413208,31.79541 39.413208,25.642578 C39.413208,25.642578 39.413208,14.48291 39.413208,14.48291 C39.413208,14.48291 30.134949,14.48291 30.134949,14.48291 C29.45343,14.48291 28.90094,13.922852 28.90094,13.231934 C28.90094,12.541016 29.45343,11.980957 30.134949,11.980957 C30.134949,11.980957 40.647278,11.980957 40.647278,11.980957 C41.328613,11.980957 41.881165,12.541016 41.881165,13.231934 C41.881165,13.231934 41.881165,15.375 41.881165,15.375 C41.881165,15.375 43.84601,15.375 43.84601,15.375 C47.239136,15.375 49.99994,18.173828 49.99994,21.614258 ZM47.53192,21.614258 C47.53192,19.55371 45.878357,17.876953 43.845886,17.876953 C43.845886,17.876953 41.881042,17.876953 41.881042,17.876953 C41.881042,17.876953 41.881042,27.751465 41.881042,27.751465 C41.881042,27.751465 43.845886,27.751465 43.845886,27.751465 C45.878357,27.751465 47.53192,26.074707 47.53192,24.01416 C47.53192,24.01416 47.53192,21.614258 47.53192,21.614258 Z" />
</svg>
