<svg xmlns="http://www.w3.org/2000/svg" xmlns:xlink="http://www.w3.org/1999/xlink" width="56" height="46" viewBox="0 0 56 46">
    <path fill-rule="evenodd" d="M53.31018,41.61133 C53.31018,41.61133 2.690796,41.61133 2.690796,41.61133 C1.7593994,41.61133 1.0032959,42.36914 1.0032959,43.30371 C1.0032959,44.237305 1.7593994,44.995117 2.690796,44.995117 C2.690796,44.995117 53.31018,44.995117 53.31018,44.995117 C54.241943,44.995117 54.998413,44.237305 54.998413,43.30371 C54.998413,42.36914 54.241943,41.61133 53.31018,41.61133 ZM29.6875,7.7714844 C29.6875,7.7714844 29.6875,4.387207 29.6875,4.387207 C29.6875,4.387207 33.062622,4.387207 33.062622,4.387207 C33.99353,4.387207 34.750122,3.6293945 34.750122,2.694336 C34.750122,1.7612305 33.99353,1.003418 33.062622,1.003418 C33.062622,1.003418 22.938843,1.003418 22.938843,1.003418 C22.007324,1.003418 21.25122,1.7612305 21.25122,2.694336 C21.25122,3.6293945 22.007324,4.387207 22.938843,4.387207 C22.938843,4.387207 26.313599,4.387207 26.313599,4.387207 C26.313599,4.387207 26.301392,7.9101562 26.313599,7.7714844 C12.193848,8.648926 1.0032959,20.46289 1.0032959,34.84326 C1.0032959,36.217285 1.0032959,35.601074 1.0032959,36.535156 C1.0032959,37.46924 1.7593994,38.22705 2.690796,38.22705 C2.690796,38.22705 53.31018,38.22705 53.31018,38.22705 C54.241943,38.22705 54.998413,37.46924 54.998413,36.535156 C54.998413,35.601074 54.998413,36.32373 54.998413,34.84326 C54.998413,20.46289 43.807617,8.648926 29.6875,7.7714844 ZM4.3779297,34.84326 C4.3779297,21.760742 14.954102,11.155273 28.00061,11.155273 C41.04773,11.155273 51.62329,21.760742 51.62329,34.84326 C51.62329,34.84326 4.3779297,34.84326 4.3779297,34.84326 Z" />
</svg>
