<svg xmlns="http://www.w3.org/2000/svg"
 xmlns:xlink="http://www.w3.org/1999/xlink"
 width="46" height="46"  viewBox="0 0 46 46">
<path fill-rule="evenodd"
 d="M44.927124,22.849976 C44.927124,21.229736 43.76062,19.500732 42.321655,18.993042 C40.881714,18.483276 39.486572,17.23523 39.0813,16.25061 C38.675293,15.268921 38.78076,13.395752 39.4364,12.016846 C40.092407,10.637573 39.694946,8.590698 38.549683,7.442871 C37.404175,6.296631 35.35681,5.9014893 33.976685,6.557495 C32.597412,7.2143555 30.726929,7.321533 29.74585,6.914795 C28.764893,6.5097656 27.517456,5.1121826 27.005127,3.6730957 C26.493408,2.2340088 24.763916,1.0670166 23.143677,1.0670166 C21.523071,1.0670166 19.79419,2.2340088 19.281982,3.6730957 C18.770142,5.1121826 17.522217,6.508911 16.54126,6.914795 C15.559692,7.321533 13.689697,7.2143555 12.310425,6.557495 C10.931519,5.9014893 8.883301,6.296631 7.7374268,7.442871 C6.591797,8.590698 6.194824,10.637573 6.85083,12.016846 C7.507202,13.396606 7.61145,15.2664795 7.2039795,16.249878 C6.7960205,17.231567 5.4053955,18.483276 3.9660645,18.993042 C2.5263672,19.500732 1.3598633,21.229736 1.3598633,22.849976 C1.3598633,24.470703 2.5263672,26.198853 3.9660645,26.710693 C5.4053955,27.223022 6.7978516,28.474243 7.2058105,29.453857 C7.6136475,30.434326 7.507202,32.30432 6.85083,33.683105 C6.194824,35.061523 6.591797,37.10974 7.7374268,38.255127 C8.883301,39.4021 10.930298,39.799316 12.310425,39.142456 C13.69043,38.48645 15.559692,38.38098 16.54126,38.78894 C17.523193,39.196045 18.770142,40.593994 19.281982,42.03235 C19.79419,43.46814 21.523071,44.633423 23.143677,44.633423 C24.763916,44.633423 26.493408,43.46814 27.005127,42.03235 C27.517456,40.593994 28.763062,39.196533 29.744263,38.78601 C30.72522,38.37805 32.597412,38.48645 33.976685,39.142456 C35.355957,39.799316 37.404175,39.4021 38.549683,38.255127 C39.694946,37.10974 40.092407,35.061523 39.4364,33.683105 C38.78076,32.303833 38.673462,30.433105 39.078735,29.453125 C39.484863,28.471802 40.881714,27.223022 42.321655,26.710693 C43.76062,26.198853 44.927124,24.470703 44.927124,22.849976 ZM23.143677,30.841919 C18.723999,30.841919 15.1501465,27.270386 15.1501465,22.858765 C15.1501465,18.440063 18.723999,14.865112 23.143677,14.865112 C27.554443,14.865112 31.127808,18.440063 31.127808,22.858765 C31.127808,27.270386 27.554443,30.841919 23.143677,30.841919 Z"/>
</svg>