<svg xmlns="http://www.w3.org/2000/svg" xmlns:xlink="http://www.w3.org/1999/xlink" width="47" height="47" viewBox="0 0 47 47">
    <path fill-rule="evenodd" d="M32.25,2.0 C31.825562,2.0 31.402588,2.025879 30.9823,2.0644531 C30.82788,2.0786133 30.67627,2.100586 30.523071,2.1206055 C30.26538,2.1518555 30.010254,2.190918 29.755005,2.237793 C29.567017,2.272461 29.383057,2.3105469 29.203247,2.3520508 C28.992432,2.3999023 28.782837,2.4560547 28.573486,2.5136719 C28.374634,2.569336 28.177368,2.6225586 27.982666,2.6860352 C27.80542,2.7436523 27.633545,2.8134766 27.458862,2.878418 C26.999634,3.0507812 26.55127,3.244629 26.11621,3.4614258 C26.030273,3.503418 25.940308,3.5424805 25.855713,3.588379 C25.62732,3.7089844 25.407104,3.8432617 25.184204,3.975586 C25.063354,4.050293 24.939941,4.120117 24.819092,4.198242 C24.603638,4.3359375 24.39746,4.4833984 24.191406,4.631836 C24.128906,4.677246 24.06311,4.7182617 23.999878,4.76416 C21.622559,2.9746094 18.734985,2.0 15.75,2.0 C8.167969,2.0 1.9998779,8.166504 1.9998779,15.75 C1.9998779,28.194336 10.002197,39.45215 23.405884,45.862793 C23.594482,45.9541 23.797852,45.99951 23.999878,45.99951 C24.202148,45.99951 24.405518,45.9541 24.594116,45.862793 C37.99707,39.45215 45.999878,28.194336 45.999878,15.75 C45.999878,8.166504 39.8313,2.0 32.25,2.0 ZM23.999878,43.097168 C11.934448,37.10791 4.749878,26.927246 4.749878,15.75 C4.749878,9.68457 9.684692,4.75 15.75,4.75 C17.968872,4.75 20.118042,5.4345703 21.940186,6.6831055 C19.805054,9.106934 18.5,12.274902 18.5,15.75 C18.5,16.5083 19.114258,17.124512 19.875,17.124512 C20.63562,17.124512 21.249878,16.5083 21.249878,15.75 C21.249878,12.476074 22.696167,9.538574 24.97351,7.5234375 C25.184204,7.3344727 25.404541,7.1572266 25.62732,6.9868164 C25.678467,6.951172 25.728027,6.911621 25.779053,6.8740234 C25.997925,6.7148438 26.22229,6.5620117 26.451782,6.42041 C26.515015,6.380371 26.578003,6.3408203 26.642578,6.303711 C26.864014,6.17041 27.090942,6.0463867 27.320557,5.930664 C27.399902,5.8911133 27.481812,5.852539 27.562378,5.813965 C27.78247,5.709961 28.005493,5.6103516 28.2323,5.5214844 C28.331787,5.4814453 28.433838,5.4453125 28.53711,5.408203 C28.750732,5.331543 28.965454,5.258789 29.183105,5.1953125 C29.315918,5.158203 29.444946,5.125 29.577759,5.0932617 C29.775146,5.0439453 29.96997,4.992676 30.171387,4.953125 C30.35254,4.919922 30.536499,4.895508 30.719238,4.869629 C30.875,4.845703 31.030762,4.819336 31.189087,4.8032227 C31.538208,4.770508 31.8927,4.75 32.25,4.75 C38.315186,4.75 43.249878,9.68457 43.249878,15.75 C43.249878,26.927246 36.066162,37.10791 23.999878,43.097168 ZM32.25,7.4995117 C31.48999,7.4995117 30.875,8.116211 30.875,8.874512 C30.875,9.633301 31.48999,10.25 32.25,10.25 C35.283325,10.25 37.75,12.716309 37.75,15.75 C37.75,16.5083 38.36499,17.124512 39.125,17.124512 C39.884888,17.124512 40.5,16.5083 40.5,15.75 C40.5,11.200195 36.799316,7.4995117 32.25,7.4995117 Z" />
</svg>
