<svg xmlns="http://www.w3.org/2000/svg" xmlns:xlink="http://www.w3.org/1999/xlink" width="46" height="47" viewBox="0 0 46 47">
    <path fill-rule="evenodd" d="M20.937439,32.24951 C26.625366,32.24951 31.249939,26.620605 31.249939,19.702637 C31.249939,12.783691 26.625366,7.15625 20.937439,7.15625 C18.12439,7.15625 15.497803,8.501953 13.542847,10.943848 C11.660156,13.297852 10.623535,16.408203 10.624939,19.702637 C10.624939,26.62207 15.250183,32.24951 20.937439,32.24951 ZM20.937439,9.905762 C25.10675,9.905762 28.499939,14.300293 28.499939,19.702637 C28.499939,25.105957 25.10675,29.5 20.937439,29.5 C16.768127,29.5 13.374939,25.105957 13.372192,19.702637 C13.372192,14.300293 16.76538,9.905762 20.937439,9.905762 ZM29.598328,30.875 C28.838318,30.875 28.223328,31.489746 28.223328,32.24951 C28.223328,33.009766 28.838318,33.625 29.598328,33.625 C34.29944,33.625 38.125,37.450195 38.125,42.152832 C38.125,42.75537 37.6308,43.25 37.023804,43.25 C37.023804,43.25 4.8483276,43.25 4.8483276,43.25 C4.243469,43.25 3.749878,42.7583 3.749878,42.152832 C3.749878,37.450195 7.5741577,33.625 12.273804,33.625 C13.033936,33.625 13.648804,33.009766 13.648804,32.24951 C13.648804,31.489746 13.033936,30.875 12.273804,30.875 C6.057495,30.875 1.0,35.934082 1.0,42.152832 C1.0,44.274414 2.7268066,45.99951 4.8483276,45.99951 C4.8483276,45.99951 37.023804,45.99951 37.023804,45.99951 C39.14685,45.99951 40.875,44.274414 40.875,42.152832 C40.875,35.934082 35.815308,30.875 29.598328,30.875 ZM21.942566,5.6289062 C22.926758,5.044922 23.976196,4.7509766 25.062439,4.7509766 C29.23175,4.7509766 32.62494,9.145996 32.62494,14.546875 C32.62494,15.516113 32.51758,16.466309 32.30542,17.375 C32.1308,18.114258 32.590027,18.854004 33.328552,19.027344 C33.434753,19.05371 33.539307,19.063965 33.644043,19.063965 C34.268433,19.063965 34.83252,18.63623 34.981506,18.003906 C35.2406,16.888672 35.37494,15.726074 35.37494,14.546875 C35.37494,7.6289062 30.750427,2.0 25.062439,2.0 C23.498718,2.0 21.938477,2.4355469 20.544128,3.2607422 C19.889404,3.6469727 19.674011,4.491211 20.059937,5.1445312 C20.446716,5.7978516 21.29187,6.0146484 21.942566,5.6289062 ZM33.99994,25.375 C33.23993,25.375 32.62494,25.989746 32.62494,26.749512 C32.62494,27.509766 33.23993,28.124512 33.99994,28.124512 C38.700928,28.124512 42.25,32.04297 42.25,36.742676 C42.25,36.898438 42.220337,37.053223 42.155945,37.190918 C41.84845,37.88672 42.161316,38.697754 42.854248,39.006348 C43.03418,39.086914 43.224792,39.125 43.41284,39.125 C43.939148,39.125 44.441406,38.818848 44.669617,38.308105 C44.888428,37.813965 44.999878,37.287598 44.999878,36.739746 C44.999878,30.527344 40.21698,25.375 33.99994,25.375 Z" />
</svg>
