<svg xmlns="http://www.w3.org/2000/svg"
 xmlns:xlink="http://www.w3.org/1999/xlink"
 width="27" height="28"  viewBox="0 0 27 28">
<path fill-rule="evenodd"
 d="M24.762207,24.68145 C24.762207,24.68145 18.568604,18.586464 18.568604,18.586464 C20.190186,16.82457 21.18689,14.493507 21.18689,11.928558 C21.186035,6.4434433 16.667603,1.9977722 11.093384,1.9977722 C5.518921,1.9977722 1.0006104,6.4434433 1.0006104,11.928558 C1.0006104,17.415741 5.518921,21.862244 11.093384,21.862244 C13.501587,21.862244 15.710693,21.02803 17.4458,19.643776 C17.4458,19.643776 23.663452,25.763268 23.663452,25.763268 C23.966309,26.061554 24.45813,26.061554 24.761353,25.763268 C25.064697,25.46373 25.064697,24.979324 24.762207,24.68145 ZM11.093384,20.333824 C6.376953,20.333824 2.5533447,16.571564 2.5533447,11.928558 C2.5533447,7.28804 6.376953,3.5249443 11.093384,3.5249443 C15.809814,3.5249443 19.633057,7.28804 19.633057,11.928558 C19.633057,16.571564 15.809814,20.333824 11.093384,20.333824 Z"/>
</svg>