<svg xmlns="http://www.w3.org/2000/svg"
 xmlns:xlink="http://www.w3.org/1999/xlink"
 width="46" height="42"  viewBox="0 0 46 42">
<path fill-rule="evenodd"
 d="M22.850525,1.1054688 C22.850525,1.1054688 1.4135742,12.665649 1.4135742,12.665649 C1.4135742,12.665649 22.850525,24.22705 22.850525,24.22705 C22.850525,24.22705 44.287354,12.665649 44.287354,12.665649 C44.287354,12.665649 22.850525,1.1054688 22.850525,1.1054688 ZM22.850525,27.957764 C22.850525,27.957764 5.3987427,18.547974 5.3987427,18.547974 C5.3987427,18.547974 1.4135742,20.696655 1.4135742,20.696655 C1.4135742,20.696655 22.850525,32.253418 22.850525,32.253418 C22.850525,32.253418 44.287354,20.696655 44.287354,20.696655 C44.287354,20.696655 40.302307,18.547974 40.302307,18.547974 C40.302307,18.547974 22.850525,27.957764 22.850525,27.957764 ZM22.850525,35.98462 C22.850525,35.98462 5.3987427,26.57312 5.3987427,26.57312 C5.3987427,26.57312 1.4135742,28.720459 1.4135742,28.720459 C1.4135742,28.720459 22.850525,40.283203 22.850525,40.283203 C22.850525,40.283203 44.287354,28.720459 44.287354,28.720459 C44.287354,28.720459 40.302307,26.57312 40.302307,26.57312 C40.302307,26.57312 22.850525,35.98462 22.850525,35.98462 Z"/>
</svg>