<svg xmlns="http://www.w3.org/2000/svg"
 xmlns:xlink="http://www.w3.org/1999/xlink"
 width="66px" height="59px"  viewBox="0 0 66 59">
<path fill-rule="evenodd"  fill="#ffffff"
 d="M38.107788,12.713295 C38.107788,12.713295 27.60028,12.713295 27.60028,12.713295 C27.60028,12.713295 32.854034,21.904587 32.854034,21.904587 C32.854034,21.904587 38.107788,12.713295 38.107788,12.713295 ZM26.286285,13.47979 C26.286285,13.47979 21.03241,22.671082 21.03241,22.671082 C21.03241,22.671082 31.54004,22.671082 31.54004,22.671082 C31.54004,22.671082 26.286285,13.47979 26.286285,13.47979 ZM44.67566,22.671082 C44.67566,22.671082 39.42169,13.47979 39.42169,13.47979 C39.42169,13.47979 34.16806,22.671082 34.16806,22.671082 C34.16806,22.671082 44.67566,22.671082 44.67566,22.671082 ZM34.16806,24.201576 C34.16806,24.201576 39.42169,33.38955 39.42169,33.38955 C39.42169,33.38955 44.67566,24.201576 44.67566,24.201576 C44.67566,24.201576 34.16806,24.201576 34.16806,24.201576 ZM21.03241,24.201576 C21.03241,24.201576 26.286285,33.38955 26.286285,33.38955 C26.286285,33.38955 31.54004,24.201576 31.54004,24.201576 C31.54004,24.201576 21.03241,24.201576 21.03241,24.201576 ZM14.464661,34.15396 C14.464661,34.15396 24.971344,34.15396 24.971344,34.15396 C24.971344,34.15396 19.718384,24.966827 19.718384,24.966827 C19.718384,24.966827 14.464661,34.15396 14.464661,34.15396 ZM51.243317,34.15396 C51.243317,34.15396 45.989685,24.966827 45.989685,24.966827 C45.989685,24.966827 40.73764,34.15396 40.73764,34.15396 C40.73764,34.15396 51.243317,34.15396 51.243317,34.15396 ZM32.854034,1.9935837 C32.854034,1.9935837 27.60028,11.184044 27.60028,11.184044 C27.60028,11.184044 38.107788,11.184044 38.107788,11.184044 C38.107788,11.184044 32.854034,1.9935837 32.854034,1.9935837 ZM45.989685,44.874092 C45.989685,44.874092 51.243317,35.68612 51.243317,35.68612 C51.243317,35.68612 40.73764,35.68612 40.73764,35.68612 C40.73764,35.68612 45.989685,44.874092 45.989685,44.874092 ZM19.718384,44.874092 C19.718384,44.874092 24.971344,35.68612 24.971344,35.68612 C24.971344,35.68612 14.464661,35.68612 14.464661,35.68612 C14.464661,35.68612 19.718384,44.874092 19.718384,44.874092 ZM7.897003,45.64142 C7.897003,45.64142 18.403687,45.64142 18.403687,45.64142 C18.403687,45.64142 13.150757,36.45096 13.150757,36.45096 C13.150757,36.45096 7.897003,45.64142 7.897003,45.64142 ZM57.811096,45.64142 C57.811096,45.64142 52.557343,36.45096 52.557343,36.45096 C52.557343,36.45096 47.303345,45.64142 47.303345,45.64142 C47.303345,45.64142 57.811096,45.64142 57.811096,45.64142 ZM47.303345,47.171913 C47.303345,47.171913 52.557343,56.359047 52.557343,56.359047 C52.557343,56.359047 57.811096,47.171913 57.811096,47.171913 C57.811096,47.171913 47.303345,47.171913 47.303345,47.171913 ZM34.16806,47.171913 C34.16806,47.171913 39.42169,56.359047 39.42169,56.359047 C39.42169,56.359047 44.67566,47.171913 44.67566,47.171913 C44.67566,47.171913 34.16806,47.171913 34.16806,47.171913 ZM13.150757,56.359047 C13.150757,56.359047 18.403687,47.171913 18.403687,47.171913 C18.403687,47.171913 7.897003,47.171913 7.897003,47.171913 C7.897003,47.171913 13.150757,56.359047 13.150757,56.359047 ZM1.3310547,57.127625 C1.3310547,57.127625 11.835815,57.127625 11.835815,57.127625 C11.835815,57.127625 6.582062,47.93924 6.582062,47.93924 C6.582062,47.93924 1.3310547,57.127625 1.3310547,57.127625 ZM27.60028,57.127625 C27.60028,57.127625 38.107788,57.127625 38.107788,57.127625 C38.107788,57.127625 32.854034,47.93924 32.854034,47.93924 C32.854034,47.93924 27.60028,57.127625 27.60028,57.127625 ZM40.73764,57.127625 C40.73764,57.127625 51.243317,57.127625 51.243317,57.127625 C51.243317,57.127625 45.989685,47.93924 45.989685,47.93924 C45.989685,47.93924 40.73764,57.127625 40.73764,57.127625 ZM59.12509,47.93924 C59.12509,47.93924 53.873047,57.127625 53.873047,57.127625 C53.873047,57.127625 64.377014,57.127625 64.377014,57.127625 C64.377014,57.127625 59.12509,47.93924 59.12509,47.93924 Z"/>
</svg>