<svg xmlns="http://www.w3.org/2000/svg"
 xmlns:xlink="http://www.w3.org/1999/xlink"
 width="29" height="27"  viewBox="0 0 29 27">
<path fill-rule="evenodd"
 d="M12.304138,5.081543 C11.577759,5.081543 10.988525,5.662842 10.988525,6.376953 C10.988525,7.0944824 11.577759,7.673828 12.304138,7.673828 C13.911499,7.673828 15.346802,8.558838 16.051758,9.98291 C16.279602,10.444092 16.747192,10.711182 17.234497,10.711182 C17.428589,10.711182 17.624756,10.668457 17.810364,10.580811 C18.463684,10.266846 18.735046,9.490723 18.416565,8.847168 C17.2677,6.5249023 14.924744,5.081543 12.304138,5.081543 ZM26.456116,22.881348 C26.456116,22.881348 22.07257,18.563232 22.07257,18.563232 C23.370117,16.76416 24.140625,14.57251 24.140625,12.202393 C24.140625,6.128174 19.124939,1.1855469 12.958862,1.1855469 C6.7927856,1.1855469 1.7770996,6.128174 1.7770996,12.202393 C1.7770996,18.275635 6.7927856,23.218262 12.958862,23.218262 C15.53479,23.218262 17.90216,22.3479 19.794678,20.900879 C19.794678,20.900879 24.130005,25.17163 24.130005,25.17163 C24.451233,25.488525 24.872742,25.645752 25.29309,25.645752 C25.714233,25.645752 26.13501,25.489014 26.456116,25.17163 C27.098389,24.54004 27.098389,23.513916 26.456116,22.881348 ZM4.4087524,12.202393 C4.4087524,7.557129 8.244934,3.777832 12.959656,3.777832 C17.674194,3.777832 21.510254,7.557129 21.510254,12.202393 C21.510254,14.1345215 20.840088,15.91333 19.724243,17.33545 C19.355408,17.80542 18.941162,18.239502 18.481323,18.62378 C16.990295,19.870605 15.064209,20.627197 12.959656,20.627197 C8.244568,20.625732 4.4087524,16.846924 4.4087524,12.202393 Z"/>
</svg>