<svg xmlns="http://www.w3.org/2000/svg" xmlns:xlink="http://www.w3.org/1999/xlink" width="46" height="46" viewBox="0 0 46 46">
    <path fill-rule="evenodd" d="M29.872864,24.373535 C29.872864,24.373535 16.125488,24.373535 16.125488,24.373535 C15.366577,24.373535 14.750732,24.989746 14.750732,25.748535 C14.750732,26.507812 15.366577,27.123535 16.125488,27.123535 C16.125488,27.123535 29.872864,27.123535 29.872864,27.123535 C30.632141,27.123535 31.247498,26.507812 31.247498,25.748535 C31.247498,24.989746 30.632141,24.373535 29.872864,24.373535 ZM32.622192,16.125977 C32.622192,16.125977 13.376099,16.125977 13.376099,16.125977 C12.617126,16.125977 12.001282,16.74121 12.001282,17.500488 C12.001282,18.259277 12.617126,18.875 13.376099,18.875 C13.376099,18.875 32.622192,18.875 32.622192,18.875 C33.38159,18.875 33.99695,18.259277 33.99695,17.500488 C33.99695,16.74121 33.38159,16.125977 32.622192,16.125977 ZM22.999268,1.003418 C10.852051,1.003418 1.003418,9.619629 1.003418,20.249512 C1.003418,26.324707 4.227234,31.733398 9.251648,35.260742 C9.251648,35.260742 9.251648,44.995117 9.251648,44.995117 C9.251648,44.995117 18.887451,39.148438 18.887451,39.148438 C20.22113,39.368164 21.592834,39.496094 22.999268,39.496094 C35.148132,39.496094 44.9953,30.878906 44.9953,20.249512 C44.9953,9.619629 35.148132,1.003418 22.999268,1.003418 ZM22.999268,36.74707 C21.393433,36.74707 19.843018,36.56006 18.352661,36.242188 C18.352661,36.242188 11.880127,40.132812 11.880127,40.132812 C11.880127,40.132812 11.966858,33.756348 11.966858,33.756348 C7.005371,30.77246 3.7527466,25.839355 3.7527466,20.249512 C3.7527466,11.13916 12.36969,3.7524414 22.999268,3.7524414 C33.628662,3.7524414 42.24585,11.13916 42.24585,20.249512 C42.24585,29.360352 33.628662,36.74707 22.999268,36.74707 Z" />
</svg>
