<svg xmlns="http://www.w3.org/2000/svg"
 xmlns:xlink="http://www.w3.org/1999/xlink"
 width="55" height="38"  viewBox="0 0 55 38">
<path fill-rule="evenodd"
 d="M9.999756,14.245117 C11.002197,12.187012 13.474487,10.636963 15.741943,10.636963 C15.741943,10.636963 41.94873,10.636963 41.94873,10.636963 C41.94873,10.636963 41.94873,8.983032 41.94873,8.983032 C41.94873,7.6187744 40.841675,6.5008545 39.491333,6.5008545 C39.491333,6.5008545 28.674805,6.5008545 28.674805,6.5008545 C28.674805,6.5008545 28.674805,5.057617 28.674805,5.057617 C28.674805,3.0014648 27.019531,1.3347168 24.990967,1.3347168 C24.990967,1.3347168 18.700562,1.3347168 18.700562,1.3347168 C17.717041,1.3347168 16.793457,1.7227783 16.09375,2.4302979 C15.394165,3.1348877 15.012329,4.062622 15.012329,5.057617 C15.012329,5.057617 15.012329,6.5024414 15.012329,6.5024414 C15.012329,6.5024414 4.1956787,6.5024414 4.1956787,6.5024414 C2.8432617,6.5008545 1.7385254,7.6187744 1.7385254,8.983032 C1.7385254,8.983032 1.7385254,31.14746 1.7385254,31.14746 C1.7385254,31.14746 9.999756,14.245117 9.999756,14.245117 ZM17.469604,5.057617 C17.469604,4.7297363 17.60205,4.4173584 17.832153,4.1831055 C18.062622,3.9449463 18.37207,3.8154297 18.698242,3.8154297 C18.698242,3.8154297 24.988647,3.8154297 24.988647,3.8154297 C25.666992,3.8154297 26.217407,4.369995 26.217407,5.057617 C26.217407,5.057617 26.217407,6.5024414 26.217407,6.5024414 C26.217407,6.5024414 17.469604,6.5024414 17.469604,6.5024414 C17.469604,6.5024414 17.469604,5.057617 17.469604,5.057617 ZM42.921265,34.762695 C42.326294,35.98401 40.728516,36.983643 39.378418,36.983643 C39.378418,36.983643 4.0803223,36.983643 4.0803223,36.983643 C2.7302246,36.983643 2.1116943,35.981567 2.7109375,34.762695 C2.7109375,34.762695 12.203125,15.340698 12.203125,15.340698 C12.796265,14.117554 14.3914795,13.115112 15.741943,13.115112 C15.741943,13.115112 51.039795,13.115112 51.039795,13.115112 C52.39441,13.115112 53.008545,14.117554 52.411377,15.340698 C52.411377,15.340698 42.921265,34.762695 42.921265,34.762695 Z"/>
</svg>