<svg xmlns="http://www.w3.org/2000/svg"
 xmlns:xlink="http://www.w3.org/1999/xlink"
 width="80" height="76"  viewBox="0 0 80 76">
<path fill-rule="evenodd"
 d="M34.933594,56.81958 C34.637512,56.81958 34.339172,56.755127 34.060303,56.62549 C33.336792,56.28662 32.874207,55.559082 32.874207,54.760254 C32.874207,54.760254 32.874207,25.235107 32.874207,25.235107 C32.874207,24.436035 33.336548,23.708252 34.060303,23.369629 C34.783447,23.030273 35.639526,23.141113 36.252625,23.652588 C36.252625,23.652588 53.967285,38.415283 53.967285,38.415283 C54.437073,38.80664 54.70862,39.38623 54.70862,39.997314 C54.70862,40.609375 54.437256,41.188477 53.967285,41.580322 C53.967285,41.580322 36.252625,56.34253 36.252625,56.34253 C35.87567,56.65674 35.4068,56.81958 34.933594,56.81958 ZM36.99408,29.632812 C36.99408,29.632812 36.99408,50.362305 36.99408,50.362305 C36.99408,50.362305 49.431274,39.997314 49.431274,39.997314 C49.431274,39.997314 36.99408,29.632812 36.99408,29.632812 ZM39.93683,74.99829 C34.072144,74.99902 28.173218,73.53589 22.830505,70.52759 C21.839355,69.96997 21.487915,68.71338 22.046387,67.72217 C22.603699,66.73096 23.860046,66.37891 24.851929,66.937744 C36.869812,73.703125 52.082397,71.61157 61.845276,61.845215 C73.89203,49.798096 73.89203,30.19751 61.845276,18.149902 C49.7984,6.1013184 30.19629,6.1018066 18.150024,18.149902 C6.10376,30.19751 6.10376,49.798096 18.150024,61.845215 C18.954529,62.649414 18.954529,63.954346 18.150024,64.75903 C17.346497,65.56348 16.04187,65.56348 15.237244,64.75903 C1.5844727,51.104736 1.5844727,28.890137 15.237244,15.236084 C28.890625,1.5842285 51.104065,1.5830078 64.75903,15.236084 C78.411865,28.890137 78.411865,51.104736 64.75903,64.75903 C58.033325,71.484375 49.025696,74.99829 39.93683,74.99829 Z"/>
</svg>