<svg xmlns="http://www.w3.org/2000/svg"
 xmlns:xlink="http://www.w3.org/1999/xlink"
 width="28" height="28"  viewBox="0 0 28 28">
<path fill-rule="evenodd"
 d="M24.499084,3.4936523 C22.09607,1.088623 18.158936,1.088623 15.755615,3.4936523 C15.755615,3.4936523 11.034546,8.217285 11.034546,8.217285 C12.653687,7.756592 14.40918,7.8771973 15.943298,8.593262 C15.943298,8.593262 18.397339,6.137207 18.397339,6.137207 C19.35199,5.182129 20.902893,5.182129 21.85736,6.137207 C22.811646,7.0915527 22.811646,8.643555 21.85736,9.599121 C21.85736,9.599121 18.77246,12.686279 18.77246,12.686279 C18.77246,12.686279 16.744263,14.714844 16.744263,14.714844 C15.789795,15.67041 14.23877,15.67041 13.284363,14.714844 C13.284363,14.714844 10.642578,17.358887 10.642578,17.358887 C11.2561035,17.9729 11.971924,18.432617 12.721985,18.723633 C14.750244,19.52417 17.102112,19.21753 18.874695,17.819092 C19.045105,17.682861 19.232544,17.529053 19.385986,17.358887 C19.385986,17.358887 22.57306,14.169922 22.57306,14.169922 C22.57306,14.169922 24.499084,12.2421875 24.499084,12.2421875 C26.91919,9.83667 26.91919,5.914551 24.499084,3.4936523 ZM11.937866,19.52417 C11.937866,19.52417 9.585876,21.878418 9.585876,21.878418 C8.631409,22.833496 7.0803833,22.833496 6.1259766,21.878418 C5.1713867,20.922363 5.1713867,19.371582 6.1259766,18.415771 C6.1259766,18.415771 11.239197,13.300781 11.239197,13.300781 C12.193481,12.345215 13.744629,12.345215 14.698975,13.300781 C14.698975,13.300781 17.340698,10.656494 17.340698,10.656494 C16.727173,10.04248 16.01123,9.582031 15.261536,9.292969 C13.130859,8.439209 10.625427,8.831055 8.835815,10.43457 C8.750671,10.503174 8.665405,10.588623 8.59729,10.656494 C8.59729,10.656494 3.484192,15.773926 3.484192,15.773926 C1.0809326,18.177734 1.0809326,22.116943 3.484192,24.521484 C5.887329,26.927246 9.824585,26.927246 12.2276,24.521484 C12.2276,24.521484 16.846436,19.848877 16.846436,19.848877 C14.494568,20.394531 13.949036,20.32666 11.937866,19.52417 Z"/>
</svg>