<svg xmlns="http://www.w3.org/2000/svg"
 xmlns:xlink="http://www.w3.org/1999/xlink"
 width="51" height="51"  viewBox="0 0 51 51">
<path fill-rule="evenodd" 
 d="M48.66797,18.469604 C48.043335,17.84729 47.039368,17.84729 46.419556,18.469604 C46.419556,18.469604 32.573364,32.313965 32.573364,32.313965 C32.573364,32.313965 13.105682,40.886597 13.105682,40.886597 C13.105682,40.886597 10.106628,37.88794 10.106628,37.88794 C10.106628,37.88794 18.683075,18.422241 18.683075,18.422241 C18.683075,18.422241 32.526978,4.5755615 32.526978,4.5755615 C33.148193,3.954834 33.148193,2.9499512 32.526978,2.3271484 C31.903992,1.7056885 30.898376,1.7056885 30.278564,2.3271484 C30.278564,2.3271484 16.010864,16.59143 16.010864,16.59143 C16.010864,16.59143 1.5342102,49.4635 1.5342102,49.4635 C1.5342102,49.4635 34.401733,34.98523 34.401733,34.98523 C34.401733,34.98523 48.66797,20.717163 48.66797,20.717163 C49.289185,20.099854 49.289185,19.090332 48.66797,18.469604 ZM28.49524,29.466064 C28.805054,29.773438 29.211182,29.931396 29.620056,29.931396 C30.027588,29.931396 30.433655,29.773438 30.745117,29.466064 C30.745117,29.466064 44.07672,16.134033 44.07672,16.134033 C44.699585,15.510498 44.699585,14.505493 44.07672,13.884766 C43.453796,13.260376 42.44983,13.260376 41.826904,13.884766 C41.826904,13.884766 28.49524,27.21643 28.49524,27.21643 C27.875427,27.836304 27.875427,28.843262 28.49524,29.466064 ZM25.015076,25.985474 C25.326477,26.293335 25.73413,26.449951 26.139954,26.449951 C26.549072,26.449951 26.954956,26.293335 27.264893,25.985474 C27.264893,25.985474 40.598022,12.652588 40.598022,12.652588 C41.219482,12.030273 41.219482,11.023193 40.598022,10.402954 C39.973755,9.780273 38.969788,9.780273 38.348145,10.402954 C38.348145,10.402954 25.015076,23.73462 25.015076,23.73462 C24.393677,24.35437 24.393677,25.36438 25.015076,25.985474 ZM21.53415,22.50232 C21.844849,22.813599 22.253052,22.96814 22.65921,22.96814 C23.065002,22.96814 23.473236,22.813599 23.783936,22.50232 C23.783936,22.50232 37.116516,9.172363 37.116516,9.172363 C37.73944,8.547607 37.73944,7.5422363 37.116516,6.9223633 C36.49524,6.29834 35.489502,6.29834 34.86664,6.9223633 C34.86664,6.9223633 21.53415,20.253174 21.53415,20.253174 C20.913513,20.873413 20.913513,21.882935 21.53415,22.50232 Z"/>
</svg>