<svg xmlns="http://www.w3.org/2000/svg"
 xmlns:xlink="http://www.w3.org/1999/xlink"
 width="44px" height="36px"  viewBox="0 0 44 36">
<path fill-rule="evenodd"  fill="#ff3b4a"
 d="M42.0813,11.446167 C42.0813,11.414185 42.05493,11.399414 42.04962,11.368042 C42.04181,11.299072 42.05493,11.228882 42.026,11.162842 C42.026,11.162842 37.906677,1.4660645 37.906677,1.4660645 C37.793457,1.201416 37.530334,1.0264893 37.23822,1.0264893 C37.23822,1.0264893 6.8395996,1.0264893 6.8395996,1.0264893 C6.5473633,1.0264893 6.2843018,1.201416 6.1709595,1.4660645 C6.1709595,1.4660645 2.0490112,11.162842 2.0490112,11.162842 C2.0200195,11.228882 2.0332031,11.299072 2.022705,11.368042 C2.0200195,11.399414 1.9937134,11.414185 1.9937134,11.446167 C1.9937134,11.460327 2.0096436,11.471924 2.0096436,11.488159 C2.0200195,11.64624 2.0648193,11.797241 2.1727905,11.922119 C2.1727905,11.922119 21.492737,33.75476 21.492737,33.75476 C21.508423,33.774048 21.537476,33.766113 21.553162,33.785645 C21.605835,33.831787 21.64801,33.87378 21.711182,33.907593 C21.724365,33.913208 21.726868,33.935913 21.7453,33.94165 C21.840088,33.981567 21.940063,34.001953 22.034912,34.001953 C22.132202,34.001953 22.2323,33.981567 22.327148,33.94165 C22.345398,33.935913 22.348083,33.913208 22.361267,33.90454 C22.424438,33.87378 22.466553,33.831787 22.51654,33.785645 C22.534973,33.766113 22.564026,33.774048 22.579834,33.75476 C22.579834,33.75476 41.89966,11.922119 41.89966,11.922119 C42.00757,11.797241 42.05493,11.64624 42.06549,11.488159 C42.06549,11.471924 42.0813,11.460327 42.0813,11.446167 ZM26.964966,2.4694824 C26.964966,2.4694824 30.51831,10.725098 30.51831,10.725098 C30.51831,10.725098 13.556824,10.725098 13.556824,10.725098 C13.556824,10.725098 17.112793,2.4694824 17.112793,2.4694824 C17.112793,2.4694824 26.964966,2.4694824 26.964966,2.4694824 ZM30.507751,12.167236 C30.507751,12.167236 22.034912,31.474487 22.034912,31.474487 C22.034912,31.474487 13.567139,12.167236 13.567139,12.167236 C13.567139,12.167236 30.507751,12.167236 30.507751,12.167236 ZM11.982666,12.167236 C11.982666,12.167236 19.513245,29.338257 19.513245,29.338257 C19.513245,29.338257 4.3204956,12.167236 4.3204956,12.167236 C4.3204956,12.167236 11.982666,12.167236 11.982666,12.167236 ZM32.092346,12.167236 C32.092346,12.167236 39.75177,12.167236 39.75177,12.167236 C39.75177,12.167236 24.559021,29.335327 24.559021,29.335327 C24.559021,29.335327 32.092346,12.167236 32.092346,12.167236 ZM40.265076,10.725098 C40.265076,10.725098 32.09491,10.725098 32.09491,10.725098 C32.09491,10.725098 28.541565,2.4694824 28.541565,2.4694824 C28.541565,2.4694824 36.756348,2.4694824 36.756348,2.4694824 C36.756348,2.4694824 40.265076,10.725098 40.265076,10.725098 ZM7.3186035,2.4694824 C7.3186035,2.4694824 15.538818,2.4694824 15.538818,2.4694824 C15.538818,2.4694824 11.982666,10.725098 11.982666,10.725098 C11.982666,10.725098 3.8098145,10.725098 3.8098145,10.725098 C3.8098145,10.725098 7.3186035,2.4694824 7.3186035,2.4694824 Z"/>
</svg>