<?xml version="1.0" encoding="iso-8859-1"?>
<!-- Generator: Adobe Illustrator 19.0.0, SVG Export Plug-In . SVG Version: 6.00 Build 0)  -->
<svg version="1.1" id="Capa_1" xmlns="http://www.w3.org/2000/svg" xmlns:xlink="http://www.w3.org/1999/xlink" x="0px" y="0px"
	 viewBox="0 0 469.335 469.335" style="enable-background:new 0 0 469.335 469.335;" xml:space="preserve">
<path style="fill:#303C42;" d="M464.761,1.918c-3.385-2.365-7.813-2.552-11.385-0.51l-448,256c-3.656,2.083-5.74,6.125-5.323,10.313
	s3.25,7.74,7.24,9.063l133.784,44.591l51.57,140.961c1.552,4.24,5.583,7,10.01,7c0.406,0,0.823-0.021,1.229-0.073
	c2.882-0.331,5.307-1.882,7.021-4.031l0.104,0.083l75.891-95.328l104.391,34.797c1.104,0.375,2.24,0.552,3.375,0.552
	c1.917,0,3.823-0.521,5.5-1.531c2.677-1.604,4.51-4.302,5.021-7.385l64-384C469.866,8.355,468.147,4.272,464.761,1.918z"/>
<polygon style="fill:#FAFAFA;" points="36.678,264.095 391.616,61.266 146.532,300.714 "/>
<path style="fill:#F2F2F2;" d="M161.72,315.699l208.615-203.813l-161.24,217.427c-1.094,1.49-1.792,3.229-2.01,5.063l-9.635,78.979
	L161.72,315.699z"/>
<linearGradient id="SVGID_1_" gradientUnits="userSpaceOnUse" x1="-55.3478" y1="613.4607" x2="-52.2216" y2="610.3345" gradientTransform="matrix(21.3333 0 0 -21.3333 1430.0985 13315.2363)">
	<stop  offset="0" style="stop-color:#000000;stop-opacity:0.1"/>
	<stop  offset="1" style="stop-color:#000000;stop-opacity:0"/>
</linearGradient>
<path style="fill:url(#SVGID_1_);" d="M161.72,315.699l208.615-203.813l-161.24,217.427c-1.094,1.49-1.792,3.229-2.01,5.063
	l-9.635,78.979L161.72,315.699z"/>
<polygon style="fill:#E6E6E6;" points="217.821,422.506 226.679,349.911 265.353,362.802 "/>
<polygon style="opacity:0.1;enable-background:new    ;" points="217.821,422.506 226.679,349.911 265.353,362.802 "/>
<polygon style="fill:#FAFAFA;" points="386.199,380.605 235.004,330.207 440.863,52.594 "/>
<linearGradient id="SVGID_2_" gradientUnits="userSpaceOnUse" x1="-63.7354" y1="618.8404" x2="-45.7458" y2="610.4516" gradientTransform="matrix(21.3333 0 0 -21.3333 1430.0985 13315.2363)">
	<stop  offset="0" style="stop-color:#FFFFFF;stop-opacity:0.2"/>
	<stop  offset="1" style="stop-color:#FFFFFF;stop-opacity:0"/>
</linearGradient>
<path style="fill:url(#SVGID_2_);" d="M464.761,1.918c-3.385-2.365-7.813-2.552-11.385-0.51l-448,256
	c-3.656,2.083-5.74,6.125-5.323,10.313s3.25,7.74,7.24,9.063l133.784,44.591l51.57,140.961c1.552,4.24,5.583,7,10.01,7
	c0.406,0,0.823-0.021,1.229-0.073c2.882-0.331,5.307-1.882,7.021-4.031l0.104,0.083l75.891-95.328l104.391,34.797
	c1.104,0.375,2.24,0.552,3.375,0.552c1.917,0,3.823-0.521,5.5-1.531c2.677-1.604,4.51-4.302,5.021-7.385l64-384
	C469.866,8.355,468.147,4.272,464.761,1.918z"/>
<g>
</g>
<g>
</g>
<g>
</g>
<g>
</g>
<g>
</g>
<g>
</g>
<g>
</g>
<g>
</g>
<g>
</g>
<g>
</g>
<g>
</g>
<g>
</g>
<g>
</g>
<g>
</g>
<g>
</g>
</svg>
