<?xml version="1.0" ?><svg height="1024" preserveAspectRatio="xMidYMid meet" width="1024" xmlns="http://www.w3.org/2000/svg"><g><title/><rect fill="none" height="402" id="canvas_background" width="582" x="-1" y="-1"/></g><g><title/><g fill="#000000" id="svg_1" transform="translate(0,1024) scale(0.10000000149011612,-0.10000000149011612) "><path d="m4855,9439c-884,-55 -1739,-386 -2430,-940c-659,-528 -1153,-1237 -1414,-2029c-318,-963 -287,-2010 86,-2960c64,-163 217,-472 310,-626c376,-621 876,-1121 1497,-1497c154,-93 464,-246 626,-310c1034,-405 2166,-405 3200,0c162,64 472,217 626,310c621,376 1121,876 1497,1497c93,154 246,464 310,626c377,962 404,2009 77,2990c-120,357 -321,757 -545,1081c-533,768 -1320,1357 -2205,1648c-523,173 -1083,245 -1635,210zm1694,-2364c215,-35 399,-126 570,-281c63,-57 56,-56 224,-8c137,39 289,97 436,166c57,26 106,46 109,43c13,-13 -78,-206 -141,-300c-55,-81 -176,-201 -266,-263c-85,-59 -91,-58 109,-15c95,20 373,107 444,138c22,10 -12,-44 -102,-160c-68,-88 -298,-315 -379,-375l-61,-45l-6,-175c-20,-522 -100,-892 -288,-1320c-161,-370 -348,-643 -637,-931c-557,-555 -1216,-868 -1976,-939c-141,-13 -513,-13 -646,0c-382,38 -729,132 -1057,286c-111,52 -264,135 -331,180l-34,23l224,-1c230,-1 349,9 519,43c201,41 413,117 590,211c93,49 315,191 325,208c3,5 -21,11 -52,15c-373,41 -665,218 -863,522c-45,68 -101,186 -115,245c-7,26 -6,26 32,17c88,-20 433,-3 433,21c0,4 -15,11 -32,14c-125,25 -321,129 -437,232c-215,191 -337,401 -386,663c-13,75 -21,221 -11,221c2,0 30,-13 62,-29c81,-40 201,-76 318,-96c54,-9 99,-15 101,-13c2,2 -32,32 -76,66c-252,201 -393,483 -406,813c-7,166 6,268 52,406c32,96 89,223 100,223c3,0 20,-17 38,-37c317,-368 644,-631 1015,-818c363,-182 770,-290 1175,-312c116,-6 120,-6 113,13c-28,71 -36,293 -16,421c35,222 133,413 299,586c178,185 387,300 612,337c41,6 81,13 89,15c47,9 248,3 329,-10z" fill="#00aced" id="svg_2"/></g></g></svg>