<svg xmlns="http://www.w3.org/2000/svg"
 xmlns:xlink="http://www.w3.org/1999/xlink"
 width="46px" height="69px"  viewBox="0 0 46 69">
<path fill-rule="evenodd"  fill="#ffffff"
 d="M5.236328,1.4534531 C5.236328,1.4534531 41.6084,1.4534531 41.6084,1.4534531 C43.47705,1.4534531 44.99182,2.9684753 44.99182,4.8369904 C44.99182,4.8369904 44.99182,64.47011 44.99182,64.47011 C44.99182,66.33879 43.47705,67.853485 41.6084,67.853485 C41.6084,67.853485 5.236328,67.853485 5.236328,67.853485 C3.3677979,67.853485 1.8530273,66.33879 1.8530273,64.47011 C1.8530273,64.47011 1.8530273,4.8369904 1.8530273,4.8369904 C1.8530273,2.9684753 3.3677979,1.4534531 5.236328,1.4534531 ZM4.390625,8.502365 C4.390625,8.502365 42.454224,8.502365 42.454224,8.502365 C42.454224,8.502365 42.454224,61.368576 42.454224,61.368576 C42.454224,61.368576 4.390625,61.368576 4.390625,61.368576 C4.390625,61.368576 4.390625,8.502365 4.390625,8.502365 ZM23.845337,4.6960754 C24.15686,4.6960754 24.409302,4.9484406 24.409302,5.259918 C24.409302,5.571396 24.15686,5.8239136 23.845337,5.8239136 C23.533936,5.8239136 23.281494,5.571396 23.281494,5.259918 C23.281494,4.9484406 23.533936,4.6960754 23.845337,4.6960754 ZM23.49292,62.96637 C24.440186,62.96637 25.20813,63.73442 25.20813,64.681564 C25.20813,65.628876 24.440186,66.39693 23.49292,66.39693 C22.545654,66.39693 21.77771,65.628876 21.77771,64.681564 C21.77771,63.73442 22.545654,62.96637 23.49292,62.96637 Z"/>
</svg>