<svg xmlns="http://www.w3.org/2000/svg"
 xmlns:xlink="http://www.w3.org/1999/xlink"
 width="76px" height="105px"  viewBox="0 0 76 105">
<path fill-rule="evenodd"  fill="#ffffff"
 d="M65.78131,103.90021 C65.78131,103.90021 10.218628,103.90021 10.218628,103.90021 C5.6728516,103.90021 1.9870605,100.21454 1.9870605,95.66852 C1.9870605,95.66852 1.9870605,9.237854 1.9870605,9.237854 C1.9870605,4.6919556 5.6728516,1.0062866 10.218628,1.0062866 C10.218628,1.0062866 65.78131,1.0062866 65.78131,1.0062866 C70.32715,1.0062866 74.01282,4.6919556 74.01282,9.237854 C74.01282,9.237854 74.01282,95.66852 74.01282,95.66852 C74.01282,100.21454 70.32715,103.90021 65.78131,103.90021 ZM37.742737,101.58508 C41.364197,101.58508 44.30243,98.64697 44.30243,95.02557 C44.30243,91.404175 41.364197,88.466125 37.742737,88.466125 C34.119263,88.466125 31.183472,91.404175 31.183472,95.02557 C31.183472,98.64697 34.119263,101.58508 37.742737,101.58508 ZM48.54657,4.0930176 C48.54657,4.0930176 26.938843,4.0930176 26.938843,4.0930176 C26.22931,4.0930176 25.65271,4.669739 25.65271,5.3792114 C25.65271,6.088806 26.22931,6.665344 26.938843,6.665344 C26.938843,6.665344 48.54657,6.665344 48.54657,6.665344 C49.25818,6.665344 49.832764,6.088806 49.832764,5.3792114 C49.832764,4.669739 49.25818,4.0930176 48.54657,4.0930176 ZM68.6109,9.75238 C68.6109,9.75238 6.6173096,9.75238 6.6173096,9.75238 C6.6173096,9.75238 6.6173096,85.63641 6.6173096,85.63641 C6.6173096,85.63641 68.6109,85.63641 68.6109,85.63641 C68.6109,85.63641 68.6109,9.75238 68.6109,9.75238 ZM36.299744,91.93872 C36.299744,91.93872 39.479126,91.93872 39.479126,91.93872 C40.34308,91.93872 41.046448,92.63812 41.046448,93.5022 C41.046448,93.5022 41.046448,96.930664 41.046448,96.930664 C41.046448,97.79486 40.34308,98.49414 39.479126,98.49414 C39.479126,98.49414 36.299744,98.49414 36.299744,98.49414 C35.435852,98.49414 34.73413,97.79486 34.73413,96.930664 C34.73413,96.930664 34.73413,93.5022 34.73413,93.5022 C34.73413,92.63812 35.435852,91.93872 36.299744,91.93872 Z"/>
</svg>